<mxfile host="app.diagrams.net" modified="2023-01-02T19:21:11.422Z" agent="5.0 (Windows NT 10.0; Win64; x64) AppleWebKit/537.36 (KHTML, like Gecko) Chrome/108.0.0.0 Safari/537.36" version="20.7.4" etag="iBzUqbnk7ZKAGZjWBSaE" type="github">
  <diagram id="uB-ajJ8kwNB5hq3RmFBL" name="Page-1">
    <mxGraphModel dx="1687" dy="899" grid="1" gridSize="10" guides="1" tooltips="1" connect="1" arrows="1" fold="1" page="1" pageScale="1" pageWidth="827" pageHeight="1169" math="0" shadow="0">
      <root>
        <mxCell id="0" />
        <mxCell id="1" parent="0" />
        <mxCell id="0BrNyvwArR-tmmYnp_Iz-15" style="rounded=0;orthogonalLoop=1;jettySize=auto;html=1;exitX=1;exitY=0.3333333333333333;exitDx=0;exitDy=0;exitPerimeter=0;entryX=0;entryY=0.5;entryDx=0;entryDy=0;endArrow=none;endFill=0;" edge="1" parent="1" source="0BrNyvwArR-tmmYnp_Iz-1" target="0BrNyvwArR-tmmYnp_Iz-13">
          <mxGeometry relative="1" as="geometry" />
        </mxCell>
        <mxCell id="0BrNyvwArR-tmmYnp_Iz-16" style="rounded=0;orthogonalLoop=1;jettySize=auto;html=1;exitX=1;exitY=0.3333333333333333;exitDx=0;exitDy=0;exitPerimeter=0;entryX=0;entryY=0.5;entryDx=0;entryDy=0;endArrow=none;endFill=0;" edge="1" parent="1" source="0BrNyvwArR-tmmYnp_Iz-1" target="0BrNyvwArR-tmmYnp_Iz-14">
          <mxGeometry relative="1" as="geometry" />
        </mxCell>
        <mxCell id="0BrNyvwArR-tmmYnp_Iz-18" style="edgeStyle=none;rounded=0;orthogonalLoop=1;jettySize=auto;html=1;exitX=1;exitY=0.3333333333333333;exitDx=0;exitDy=0;exitPerimeter=0;endArrow=none;endFill=0;" edge="1" parent="1" source="0BrNyvwArR-tmmYnp_Iz-1" target="0BrNyvwArR-tmmYnp_Iz-17">
          <mxGeometry relative="1" as="geometry" />
        </mxCell>
        <mxCell id="0BrNyvwArR-tmmYnp_Iz-1" value="Personne" style="shape=umlActor;verticalLabelPosition=bottom;verticalAlign=top;html=1;outlineConnect=0;" vertex="1" parent="1">
          <mxGeometry x="140" y="50" width="30" height="60" as="geometry" />
        </mxCell>
        <mxCell id="0BrNyvwArR-tmmYnp_Iz-2" value="Utilisateur" style="shape=umlActor;verticalLabelPosition=bottom;verticalAlign=top;html=1;outlineConnect=0;" vertex="1" parent="1">
          <mxGeometry x="160" y="400" width="30" height="60" as="geometry" />
        </mxCell>
        <mxCell id="0BrNyvwArR-tmmYnp_Iz-3" value="Admin" style="shape=umlActor;verticalLabelPosition=bottom;verticalAlign=top;html=1;outlineConnect=0;" vertex="1" parent="1">
          <mxGeometry x="70" y="790" width="30" height="60" as="geometry" />
        </mxCell>
        <mxCell id="0BrNyvwArR-tmmYnp_Iz-7" value="" style="endArrow=block;endFill=0;endSize=12;html=1;rounded=0;exitX=0.5;exitY=0;exitDx=0;exitDy=0;exitPerimeter=0;entryX=0;entryY=1;entryDx=0;entryDy=0;entryPerimeter=0;" edge="1" parent="1" source="0BrNyvwArR-tmmYnp_Iz-3" target="0BrNyvwArR-tmmYnp_Iz-1">
          <mxGeometry width="160" relative="1" as="geometry">
            <mxPoint x="330" y="390" as="sourcePoint" />
            <mxPoint x="140" y="190" as="targetPoint" />
          </mxGeometry>
        </mxCell>
        <mxCell id="0BrNyvwArR-tmmYnp_Iz-10" value="" style="endArrow=block;endFill=0;endSize=12;html=1;rounded=0;exitX=0.5;exitY=0;exitDx=0;exitDy=0;exitPerimeter=0;entryX=1;entryY=1;entryDx=0;entryDy=0;entryPerimeter=0;" edge="1" parent="1" source="0BrNyvwArR-tmmYnp_Iz-2" target="0BrNyvwArR-tmmYnp_Iz-1">
          <mxGeometry width="160" relative="1" as="geometry">
            <mxPoint x="250" y="500" as="sourcePoint" />
            <mxPoint x="165" y="190" as="targetPoint" />
          </mxGeometry>
        </mxCell>
        <mxCell id="0BrNyvwArR-tmmYnp_Iz-11" value="S&#39;authentifier" style="ellipse;whiteSpace=wrap;html=1;" vertex="1" parent="1">
          <mxGeometry x="890" y="395" width="140" height="70" as="geometry" />
        </mxCell>
        <mxCell id="0BrNyvwArR-tmmYnp_Iz-13" value="Rechercher un médicament" style="ellipse;whiteSpace=wrap;html=1;" vertex="1" parent="1">
          <mxGeometry x="510" y="110" width="190" height="80" as="geometry" />
        </mxCell>
        <mxCell id="0BrNyvwArR-tmmYnp_Iz-14" value="Sélectionner un médicament" style="ellipse;whiteSpace=wrap;html=1;" vertex="1" parent="1">
          <mxGeometry x="510" y="210" width="190" height="80" as="geometry" />
        </mxCell>
        <mxCell id="0BrNyvwArR-tmmYnp_Iz-17" value="Consulter les medicaments" style="ellipse;whiteSpace=wrap;html=1;" vertex="1" parent="1">
          <mxGeometry x="510" y="20" width="190" height="80" as="geometry" />
        </mxCell>
        <mxCell id="0BrNyvwArR-tmmYnp_Iz-19" value="Ajouter un médicament au panier" style="ellipse;whiteSpace=wrap;html=1;" vertex="1" parent="1">
          <mxGeometry x="510" y="310" width="210" height="80" as="geometry" />
        </mxCell>
        <mxCell id="0BrNyvwArR-tmmYnp_Iz-20" value="Supprimer médicament du panier" style="ellipse;whiteSpace=wrap;html=1;" vertex="1" parent="1">
          <mxGeometry x="510" y="410" width="210" height="80" as="geometry" />
        </mxCell>
      </root>
    </mxGraphModel>
  </diagram>
</mxfile>
